<?xml version="1.0" encoding="iso-8859-1"?>
<!-- Generator: Adobe Illustrator 16.0.0, SVG Export Plug-In . SVG Version: 6.00 Build 0)  -->
<!DOCTYPE svg PUBLIC "-//W3C//DTD SVG 1.1//EN" "http://www.w3.org/Graphics/SVG/1.1/DTD/svg11.dtd">
<svg xmlns="http://www.w3.org/2000/svg" xmlns:xlink="http://www.w3.org/1999/xlink" version="1.1" id="Capa_1" x="0px" y="0px" width="512px" height="512px" viewBox="0 0 234.051 234.051" style="enable-background:new 0 0 234.051 234.051;" xml:space="preserve">
<g>
	<g>
		<polygon points="106.006,130.333 106.332,136.606 123.735,135.737 123.408,129.43   " fill="#61b82e"/>
		<path d="M95.848,125.896c-0.142-2.732,1.961-5.064,4.694-5.208l27.302-1.416c2.733-0.142,5.064,1.96,5.207,4.694l0.586,11.275    l24.79-1.237L113.029,3.017c-0.728-1.906-2.597-3.118-4.639-3.01c-2.037,0.112-3.767,1.528-4.28,3.502l-31.871,134.8l24.191-1.208    L95.848,125.896z" fill="#61b82e"/>
		<path d="M222.675,161.167c-1.429-2.115-3.706-3.465-6.247-3.703c-0.196-0.019-0.394-0.024-0.591-0.019l-48.732,1.598l-4.68-13.5    l-28.181,1.406l0.573,11.043c0.142,2.733-1.96,5.064-4.694,5.206l-27.301,1.417c-2.735,0.143-5.065-1.96-5.208-4.692    l-0.577-11.115l-27.606,1.378l-2.873,12.151l-49.018,1.605c-0.247,0.008-0.493,0.036-0.736,0.083    c-2.55,0.493-4.703,2.095-5.909,4.395c-1.206,2.299-1.301,4.98-0.259,7.358c2.083,4.751,5.051,8.808,7.67,12.237    c3.121,4.087,6.848,8.167,11.075,12.128c8.039,7.53,17.281,13.985,27.471,19.187c13.276,6.773,27.994,11.335,43.782,13.562    l2.695,0.355c0.118,0.017,0.239,0.029,0.358,0.04c0.016,0.002,0.032,0.004,0.048,0.006l2.797,0.239    c4.29,0.345,8.479,0.519,12.452,0.519c3.765,0,7.476-0.157,11.03-0.464c7.201-0.622,14.602-1.921,23.26-4.077    c0.106-0.025,0.21-0.054,0.348-0.092c3.477-1.013,6.994-2.161,10.739-3.504c0.119-0.042,0.235-0.088,0.349-0.133    c4.012-1.631,7.208-3.025,10.023-4.372c0.109-0.052,0.218-0.105,0.311-0.154c5.907-3.091,13.566-7.376,20.416-13.134    c3.026-2.545,5.967-5.07,8.669-7.958l0.975-1.035c2.319-2.462,4.72-5.007,6.799-8.072c5.94-8.22,9.718-15.439,11.88-22.719    C224.506,165.893,224.104,163.276,222.675,161.167z" fill="#61b82e"/>
		<polygon points="124.661,153.555 124.342,147.443 106.94,148.312 107.258,154.459   " fill="#61b82e"/>
	</g>
</g>
<g>
</g>
<g>
</g>
<g>
</g>
<g>
</g>
<g>
</g>
<g>
</g>
<g>
</g>
<g>
</g>
<g>
</g>
<g>
</g>
<g>
</g>
<g>
</g>
<g>
</g>
<g>
</g>
<g>
</g>
</svg>
